<svg width="9" height="14" viewBox="0 0 9 14" fill="none" xmlns="http://www.w3.org/2000/svg">
<path d="M2.75699 7.00006L7.70699 11.9501C7.8025 12.0423 7.87868 12.1526 7.93109 12.2747C7.9835 12.3967 8.01108 12.5279 8.01224 12.6607C8.01339 12.7934 7.98809 12.9251 7.93781 13.048C7.88753 13.1709 7.81327 13.2826 7.71938 13.3765C7.62549 13.4703 7.51384 13.5446 7.39094 13.5949C7.26804 13.6452 7.13636 13.6705 7.00359 13.6693C6.87081 13.6682 6.73959 13.6406 6.61758 13.5882C6.49558 13.5358 6.38523 13.4596 6.29299 13.3641L0.635987 7.70706C0.448516 7.51953 0.343201 7.26522 0.343201 7.00006C0.343201 6.73489 0.448516 6.48059 0.635987 6.29306L6.29299 0.636058C6.48159 0.4539 6.73419 0.353106 6.99639 0.355384C7.25858 0.357663 7.5094 0.462832 7.69481 0.64824C7.88021 0.833648 7.98538 1.08446 7.98766 1.34666C7.98994 1.60885 7.88914 1.86146 7.70699 2.05006L2.75699 7.00006Z" fill="#475569"/>
</svg>
