<svg width="140" height="25" viewBox="0 0 140 25" fill="none" xmlns="http://www.w3.org/2000/svg">
<path d="M15.2969 20.3438V24H3.1875V20.3438H15.2969ZM4.71875 1.25V24H0.03125V1.25H4.71875ZM13.7188 10.5156V14.0781H3.1875V10.5156H13.7188ZM15.2812 1.25V4.92188H3.1875V1.25H15.2812ZM23.0938 20.7188L26.8438 7.09375H31.5469L25.8438 24H23L23.0938 20.7188ZM20.5156 7.09375L24.2812 20.7344L24.3594 24H21.5L15.7969 7.09375H20.5156ZM41.125 24.3125C39.8125 24.3125 38.6354 24.1042 37.5938 23.6875C36.5521 23.2604 35.6667 22.6719 34.9375 21.9219C34.2188 21.1719 33.6667 20.3021 33.2812 19.3125C32.8958 18.3125 32.7031 17.25 32.7031 16.125V15.5C32.7031 14.2188 32.8854 13.0469 33.25 11.9844C33.6146 10.9219 34.1354 10 34.8125 9.21875C35.5 8.4375 36.3333 7.83854 37.3125 7.42188C38.2917 6.99479 39.3958 6.78125 40.625 6.78125C41.8229 6.78125 42.8854 6.97917 43.8125 7.375C44.7396 7.77083 45.5156 8.33333 46.1406 9.0625C46.776 9.79167 47.2552 10.6667 47.5781 11.6875C47.901 12.6979 48.0625 13.8229 48.0625 15.0625V16.9375H34.625V13.9375H43.6406V13.5938C43.6406 12.9688 43.526 12.4115 43.2969 11.9219C43.0781 11.4219 42.7448 11.026 42.2969 10.7344C41.849 10.4427 41.276 10.2969 40.5781 10.2969C39.9844 10.2969 39.474 10.4271 39.0469 10.6875C38.6198 10.9479 38.2708 11.3125 38 11.7812C37.7396 12.25 37.5417 12.8021 37.4062 13.4375C37.2812 14.0625 37.2188 14.75 37.2188 15.5V16.125C37.2188 16.8021 37.3125 17.4271 37.5 18C37.6979 18.5729 37.974 19.0677 38.3281 19.4844C38.6927 19.901 39.1302 20.224 39.6406 20.4531C40.1615 20.6823 40.75 20.7969 41.4062 20.7969C42.2188 20.7969 42.974 20.6406 43.6719 20.3281C44.3802 20.0052 44.9896 19.5208 45.5 18.875L47.6875 21.25C47.3333 21.7604 46.849 22.25 46.2344 22.7188C45.6302 23.1875 44.901 23.5729 44.0469 23.875C43.1927 24.1667 42.2188 24.3125 41.125 24.3125ZM55.0312 10.7031V24H50.5312V7.09375H54.75L55.0312 10.7031ZM54.375 14.9531H53.1562C53.1562 13.7031 53.3177 12.5781 53.6406 11.5781C53.9635 10.5677 54.4167 9.70833 55 9C55.5833 8.28125 56.276 7.73438 57.0781 7.35938C57.8906 6.97396 58.7969 6.78125 59.7969 6.78125C60.5885 6.78125 61.3125 6.89583 61.9688 7.125C62.625 7.35417 63.1875 7.71875 63.6562 8.21875C64.1354 8.71875 64.5 9.38021 64.75 10.2031C65.0104 11.026 65.1406 12.0312 65.1406 13.2188V24H60.6094V13.2031C60.6094 12.4531 60.5052 11.8698 60.2969 11.4531C60.0885 11.0365 59.7812 10.7448 59.375 10.5781C58.9792 10.401 58.4896 10.3125 57.9062 10.3125C57.3021 10.3125 56.776 10.4323 56.3281 10.6719C55.8906 10.9115 55.526 11.2448 55.2344 11.6719C54.9531 12.0885 54.7396 12.5781 54.5938 13.1406C54.4479 13.7031 54.375 14.3073 54.375 14.9531ZM76.8438 7.09375V10.2812H67V7.09375H76.8438ZM69.4375 2.92188H73.9375V18.9062C73.9375 19.3958 74 19.7708 74.125 20.0312C74.2604 20.2917 74.4583 20.474 74.7188 20.5781C74.9792 20.6719 75.3073 20.7188 75.7031 20.7188C75.9844 20.7188 76.2344 20.7083 76.4531 20.6875C76.6823 20.6562 76.875 20.625 77.0312 20.5938L77.0469 23.9062C76.6615 24.0312 76.2448 24.1302 75.7969 24.2031C75.349 24.276 74.8542 24.3125 74.3125 24.3125C73.3229 24.3125 72.4583 24.151 71.7188 23.8281C70.9896 23.4948 70.4271 22.9635 70.0312 22.2344C69.6354 21.5052 69.4375 20.5469 69.4375 19.3594V2.92188Z" fill="white"/>
<path d="M91.8281 10.4219H94.3906C95.0469 10.4219 95.5833 10.3073 96 10.0781C96.4271 9.83854 96.7448 9.50521 96.9531 9.07812C97.1615 8.64062 97.2656 8.125 97.2656 7.53125C97.2656 7.07292 97.1667 6.65104 96.9688 6.26562C96.7812 5.88021 96.4896 5.57292 96.0938 5.34375C95.6979 5.10417 95.1927 4.98438 94.5781 4.98438C94.1615 4.98438 93.7552 5.07292 93.3594 5.25C92.9635 5.41667 92.6354 5.65625 92.375 5.96875C92.125 6.28125 92 6.66146 92 7.10938H86.7188C86.7188 5.81771 87.0729 4.71354 87.7812 3.79688C88.5 2.86979 89.4427 2.16146 90.6094 1.67188C91.7865 1.17188 93.0521 0.921875 94.4062 0.921875C96.0208 0.921875 97.4375 1.17188 98.6562 1.67188C99.875 2.16146 100.823 2.89062 101.5 3.85938C102.188 4.81771 102.531 6.00521 102.531 7.42188C102.531 8.20312 102.349 8.9375 101.984 9.625C101.62 10.3125 101.109 10.9167 100.453 11.4375C99.7969 11.9583 99.026 12.3698 98.1406 12.6719C97.2656 12.9635 96.3073 13.1094 95.2656 13.1094H91.8281V10.4219ZM91.8281 14.3438V11.7188H95.2656C96.401 11.7188 97.4375 11.849 98.375 12.1094C99.3125 12.3594 100.12 12.7344 100.797 13.2344C101.474 13.7344 101.995 14.3542 102.359 15.0938C102.724 15.8229 102.906 16.6615 102.906 17.6094C102.906 18.6719 102.693 19.6198 102.266 20.4531C101.839 21.2865 101.24 21.9896 100.469 22.5625C99.6979 23.1354 98.7969 23.5729 97.7656 23.875C96.7344 24.1667 95.6146 24.3125 94.4062 24.3125C93.4583 24.3125 92.5104 24.1875 91.5625 23.9375C90.6146 23.6771 89.75 23.2812 88.9688 22.75C88.1875 22.2083 87.5573 21.5208 87.0781 20.6875C86.6094 19.8438 86.375 18.8385 86.375 17.6719H91.6562C91.6562 18.151 91.7865 18.5885 92.0469 18.9844C92.3177 19.3698 92.6771 19.6771 93.125 19.9062C93.5729 20.1354 94.0573 20.25 94.5781 20.25C95.224 20.25 95.7708 20.1302 96.2188 19.8906C96.6771 19.6406 97.026 19.3073 97.2656 18.8906C97.5052 18.474 97.625 18.0104 97.625 17.5C97.625 16.7292 97.4948 16.1146 97.2344 15.6562C96.9844 15.1979 96.6146 14.8646 96.125 14.6562C95.6458 14.4479 95.0677 14.3438 94.3906 14.3438H91.8281ZM117.453 0.921875H118.297V5.0625H118.016C117.005 5.0625 116.057 5.20312 115.172 5.48438C114.297 5.76562 113.526 6.19271 112.859 6.76562C112.203 7.32812 111.688 8.04167 111.312 8.90625C110.948 9.77083 110.766 10.7865 110.766 11.9531V15.9375C110.766 16.6667 110.828 17.3021 110.953 17.8438C111.078 18.3854 111.266 18.8333 111.516 19.1875C111.766 19.5417 112.073 19.8073 112.438 19.9844C112.812 20.1615 113.245 20.25 113.734 20.25C114.141 20.25 114.516 20.1562 114.859 19.9688C115.203 19.7812 115.5 19.5156 115.75 19.1719C116.01 18.8281 116.208 18.4271 116.344 17.9688C116.479 17.5104 116.547 17.0104 116.547 16.4688C116.547 15.8854 116.474 15.3594 116.328 14.8906C116.182 14.4219 115.974 14.026 115.703 13.7031C115.443 13.3698 115.125 13.1198 114.75 12.9531C114.385 12.776 113.984 12.6875 113.547 12.6875C112.88 12.6875 112.312 12.8385 111.844 13.1406C111.385 13.4323 111.036 13.8073 110.797 14.2656C110.568 14.724 110.453 15.1875 110.453 15.6562L109.188 14.375C109.167 13.75 109.286 13.1042 109.547 12.4375C109.807 11.7708 110.198 11.151 110.719 10.5781C111.24 10.0052 111.891 9.54167 112.672 9.1875C113.453 8.83333 114.359 8.65625 115.391 8.65625C116.432 8.65625 117.349 8.85417 118.141 9.25C118.943 9.64583 119.615 10.1979 120.156 10.9062C120.708 11.6146 121.125 12.4427 121.406 13.3906C121.688 14.3385 121.828 15.3646 121.828 16.4688C121.828 17.5833 121.63 18.6198 121.234 19.5781C120.849 20.526 120.302 21.3542 119.594 22.0625C118.885 22.7708 118.047 23.3229 117.078 23.7188C116.109 24.1146 115.042 24.3125 113.875 24.3125C112.677 24.3125 111.568 24.1094 110.547 23.7031C109.536 23.2865 108.651 22.6875 107.891 21.9062C107.141 21.1146 106.552 20.151 106.125 19.0156C105.708 17.8802 105.5 16.5938 105.5 15.1562V13.2344C105.5 11.2865 105.818 9.55208 106.453 8.03125C107.099 6.51042 107.974 5.22396 109.078 4.17188C110.193 3.10938 111.469 2.30208 112.906 1.75C114.344 1.19792 115.859 0.921875 117.453 0.921875ZM139.953 10.5469V14.7031C139.953 16.3385 139.76 17.7604 139.375 18.9688C139 20.1771 138.458 21.1771 137.75 21.9688C137.052 22.7604 136.219 23.349 135.25 23.7344C134.281 24.1198 133.214 24.3125 132.047 24.3125C131.109 24.3125 130.234 24.1927 129.422 23.9531C128.609 23.7031 127.875 23.3281 127.219 22.8281C126.573 22.3177 126.016 21.6823 125.547 20.9219C125.078 20.1615 124.719 19.2656 124.469 18.2344C124.219 17.1927 124.094 16.0156 124.094 14.7031V10.5469C124.094 8.90104 124.281 7.47917 124.656 6.28125C125.042 5.07292 125.589 4.07292 126.297 3.28125C127.005 2.48958 127.844 1.90104 128.812 1.51562C129.781 1.13021 130.849 0.9375 132.016 0.9375C132.953 0.9375 133.823 1.0625 134.625 1.3125C135.438 1.55208 136.172 1.92708 136.828 2.4375C137.484 2.9375 138.042 3.56771 138.5 4.32812C138.969 5.08854 139.328 5.98958 139.578 7.03125C139.828 8.0625 139.953 9.23438 139.953 10.5469ZM134.688 15.3438V9.875C134.688 9.14583 134.646 8.51042 134.562 7.96875C134.49 7.42708 134.375 6.96875 134.219 6.59375C134.073 6.21875 133.891 5.91667 133.672 5.6875C133.453 5.44792 133.203 5.27604 132.922 5.17188C132.651 5.05729 132.349 5 132.016 5C131.599 5 131.224 5.08854 130.891 5.26562C130.568 5.43229 130.292 5.70312 130.062 6.07812C129.833 6.45312 129.656 6.95312 129.531 7.57812C129.417 8.20312 129.359 8.96875 129.359 9.875V15.3438C129.359 16.0833 129.396 16.7292 129.469 17.2812C129.552 17.8229 129.667 18.2865 129.812 18.6719C129.969 19.0469 130.156 19.3542 130.375 19.5938C130.594 19.8229 130.844 19.9896 131.125 20.0938C131.406 20.1979 131.714 20.25 132.047 20.25C132.453 20.25 132.818 20.1667 133.141 20C133.464 19.8333 133.74 19.5625 133.969 19.1875C134.208 18.8021 134.385 18.2969 134.5 17.6719C134.625 17.0365 134.688 16.2604 134.688 15.3438Z" fill="url(#paint0_linear_1_821)"/>
<defs>
<linearGradient id="paint0_linear_1_821" x1="131.036" y1="31" x2="17.9411" y2="-28.6442" gradientUnits="userSpaceOnUse">
<stop stop-color="#5A01CB"/>
<stop offset="0.794" stop-color="#FE8900"/>
</linearGradient>
</defs>
</svg>
