<svg width="144" height="36" viewBox="0 0 144 36" fill="none" xmlns="http://www.w3.org/2000/svg">
<path d="M17.2969 24.8438V28.5H5.1875V24.8438H17.2969ZM6.71875 5.75V28.5H2.03125V5.75H6.71875ZM15.7188 15.0156V18.5781H5.1875V15.0156H15.7188ZM17.2812 5.75V9.42188H5.1875V5.75H17.2812ZM25.0938 25.2188L28.8438 11.5938H33.5469L27.8438 28.5H25L25.0938 25.2188ZM22.5156 11.5938L26.2812 25.2344L26.3594 28.5H23.5L17.7969 11.5938H22.5156ZM43.125 28.8125C41.8125 28.8125 40.6354 28.6042 39.5938 28.1875C38.5521 27.7604 37.6667 27.1719 36.9375 26.4219C36.2188 25.6719 35.6667 24.8021 35.2812 23.8125C34.8958 22.8125 34.7031 21.75 34.7031 20.625V20C34.7031 18.7188 34.8854 17.5469 35.25 16.4844C35.6146 15.4219 36.1354 14.5 36.8125 13.7188C37.5 12.9375 38.3333 12.3385 39.3125 11.9219C40.2917 11.4948 41.3958 11.2812 42.625 11.2812C43.8229 11.2812 44.8854 11.4792 45.8125 11.875C46.7396 12.2708 47.5156 12.8333 48.1406 13.5625C48.776 14.2917 49.2552 15.1667 49.5781 16.1875C49.901 17.1979 50.0625 18.3229 50.0625 19.5625V21.4375H36.625V18.4375H45.6406V18.0938C45.6406 17.4688 45.526 16.9115 45.2969 16.4219C45.0781 15.9219 44.7448 15.526 44.2969 15.2344C43.849 14.9427 43.276 14.7969 42.5781 14.7969C41.9844 14.7969 41.474 14.9271 41.0469 15.1875C40.6198 15.4479 40.2708 15.8125 40 16.2812C39.7396 16.75 39.5417 17.3021 39.4062 17.9375C39.2812 18.5625 39.2188 19.25 39.2188 20V20.625C39.2188 21.3021 39.3125 21.9271 39.5 22.5C39.6979 23.0729 39.974 23.5677 40.3281 23.9844C40.6927 24.401 41.1302 24.724 41.6406 24.9531C42.1615 25.1823 42.75 25.2969 43.4062 25.2969C44.2188 25.2969 44.974 25.1406 45.6719 24.8281C46.3802 24.5052 46.9896 24.0208 47.5 23.375L49.6875 25.75C49.3333 26.2604 48.849 26.75 48.2344 27.2188C47.6302 27.6875 46.901 28.0729 46.0469 28.375C45.1927 28.6667 44.2188 28.8125 43.125 28.8125ZM57.0312 15.2031V28.5H52.5312V11.5938H56.75L57.0312 15.2031ZM56.375 19.4531H55.1562C55.1562 18.2031 55.3177 17.0781 55.6406 16.0781C55.9635 15.0677 56.4167 14.2083 57 13.5C57.5833 12.7812 58.276 12.2344 59.0781 11.8594C59.8906 11.474 60.7969 11.2812 61.7969 11.2812C62.5885 11.2812 63.3125 11.3958 63.9688 11.625C64.625 11.8542 65.1875 12.2188 65.6562 12.7188C66.1354 13.2188 66.5 13.8802 66.75 14.7031C67.0104 15.526 67.1406 16.5312 67.1406 17.7188V28.5H62.6094V17.7031C62.6094 16.9531 62.5052 16.3698 62.2969 15.9531C62.0885 15.5365 61.7812 15.2448 61.375 15.0781C60.9792 14.901 60.4896 14.8125 59.9062 14.8125C59.3021 14.8125 58.776 14.9323 58.3281 15.1719C57.8906 15.4115 57.526 15.7448 57.2344 16.1719C56.9531 16.5885 56.7396 17.0781 56.5938 17.6406C56.4479 18.2031 56.375 18.8073 56.375 19.4531ZM78.8438 11.5938V14.7812H69V11.5938H78.8438ZM71.4375 7.42188H75.9375V23.4062C75.9375 23.8958 76 24.2708 76.125 24.5312C76.2604 24.7917 76.4583 24.974 76.7188 25.0781C76.9792 25.1719 77.3073 25.2188 77.7031 25.2188C77.9844 25.2188 78.2344 25.2083 78.4531 25.1875C78.6823 25.1562 78.875 25.125 79.0312 25.0938L79.0469 28.4062C78.6615 28.5312 78.2448 28.6302 77.7969 28.7031C77.349 28.776 76.8542 28.8125 76.3125 28.8125C75.3229 28.8125 74.4583 28.651 73.7188 28.3281C72.9896 27.9948 72.4271 27.4635 72.0312 26.7344C71.6354 26.0052 71.4375 25.0469 71.4375 23.8594V7.42188Z" fill="black"/>
<path d="M93.8281 14.9219H96.3906C97.0469 14.9219 97.5833 14.8073 98 14.5781C98.4271 14.3385 98.7448 14.0052 98.9531 13.5781C99.1615 13.1406 99.2656 12.625 99.2656 12.0312C99.2656 11.5729 99.1667 11.151 98.9688 10.7656C98.7812 10.3802 98.4896 10.0729 98.0938 9.84375C97.6979 9.60417 97.1927 9.48438 96.5781 9.48438C96.1615 9.48438 95.7552 9.57292 95.3594 9.75C94.9635 9.91667 94.6354 10.1562 94.375 10.4688C94.125 10.7812 94 11.1615 94 11.6094H88.7188C88.7188 10.3177 89.0729 9.21354 89.7812 8.29688C90.5 7.36979 91.4427 6.66146 92.6094 6.17188C93.7865 5.67188 95.0521 5.42188 96.4062 5.42188C98.0208 5.42188 99.4375 5.67188 100.656 6.17188C101.875 6.66146 102.823 7.39062 103.5 8.35938C104.188 9.31771 104.531 10.5052 104.531 11.9219C104.531 12.7031 104.349 13.4375 103.984 14.125C103.62 14.8125 103.109 15.4167 102.453 15.9375C101.797 16.4583 101.026 16.8698 100.141 17.1719C99.2656 17.4635 98.3073 17.6094 97.2656 17.6094H93.8281V14.9219ZM93.8281 18.8438V16.2188H97.2656C98.401 16.2188 99.4375 16.349 100.375 16.6094C101.312 16.8594 102.12 17.2344 102.797 17.7344C103.474 18.2344 103.995 18.8542 104.359 19.5938C104.724 20.3229 104.906 21.1615 104.906 22.1094C104.906 23.1719 104.693 24.1198 104.266 24.9531C103.839 25.7865 103.24 26.4896 102.469 27.0625C101.698 27.6354 100.797 28.0729 99.7656 28.375C98.7344 28.6667 97.6146 28.8125 96.4062 28.8125C95.4583 28.8125 94.5104 28.6875 93.5625 28.4375C92.6146 28.1771 91.75 27.7812 90.9688 27.25C90.1875 26.7083 89.5573 26.0208 89.0781 25.1875C88.6094 24.3438 88.375 23.3385 88.375 22.1719H93.6562C93.6562 22.651 93.7865 23.0885 94.0469 23.4844C94.3177 23.8698 94.6771 24.1771 95.125 24.4062C95.5729 24.6354 96.0573 24.75 96.5781 24.75C97.224 24.75 97.7708 24.6302 98.2188 24.3906C98.6771 24.1406 99.026 23.8073 99.2656 23.3906C99.5052 22.974 99.625 22.5104 99.625 22C99.625 21.2292 99.4948 20.6146 99.2344 20.1562C98.9844 19.6979 98.6146 19.3646 98.125 19.1562C97.6458 18.9479 97.0677 18.8438 96.3906 18.8438H93.8281ZM119.453 5.42188H120.297V9.5625H120.016C119.005 9.5625 118.057 9.70312 117.172 9.98438C116.297 10.2656 115.526 10.6927 114.859 11.2656C114.203 11.8281 113.688 12.5417 113.312 13.4062C112.948 14.2708 112.766 15.2865 112.766 16.4531V20.4375C112.766 21.1667 112.828 21.8021 112.953 22.3438C113.078 22.8854 113.266 23.3333 113.516 23.6875C113.766 24.0417 114.073 24.3073 114.438 24.4844C114.812 24.6615 115.245 24.75 115.734 24.75C116.141 24.75 116.516 24.6562 116.859 24.4688C117.203 24.2812 117.5 24.0156 117.75 23.6719C118.01 23.3281 118.208 22.9271 118.344 22.4688C118.479 22.0104 118.547 21.5104 118.547 20.9688C118.547 20.3854 118.474 19.8594 118.328 19.3906C118.182 18.9219 117.974 18.526 117.703 18.2031C117.443 17.8698 117.125 17.6198 116.75 17.4531C116.385 17.276 115.984 17.1875 115.547 17.1875C114.88 17.1875 114.312 17.3385 113.844 17.6406C113.385 17.9323 113.036 18.3073 112.797 18.7656C112.568 19.224 112.453 19.6875 112.453 20.1562L111.188 18.875C111.167 18.25 111.286 17.6042 111.547 16.9375C111.807 16.2708 112.198 15.651 112.719 15.0781C113.24 14.5052 113.891 14.0417 114.672 13.6875C115.453 13.3333 116.359 13.1562 117.391 13.1562C118.432 13.1562 119.349 13.3542 120.141 13.75C120.943 14.1458 121.615 14.6979 122.156 15.4062C122.708 16.1146 123.125 16.9427 123.406 17.8906C123.688 18.8385 123.828 19.8646 123.828 20.9688C123.828 22.0833 123.63 23.1198 123.234 24.0781C122.849 25.026 122.302 25.8542 121.594 26.5625C120.885 27.2708 120.047 27.8229 119.078 28.2188C118.109 28.6146 117.042 28.8125 115.875 28.8125C114.677 28.8125 113.568 28.6094 112.547 28.2031C111.536 27.7865 110.651 27.1875 109.891 26.4062C109.141 25.6146 108.552 24.651 108.125 23.5156C107.708 22.3802 107.5 21.0938 107.5 19.6562V17.7344C107.5 15.7865 107.818 14.0521 108.453 12.5312C109.099 11.0104 109.974 9.72396 111.078 8.67188C112.193 7.60938 113.469 6.80208 114.906 6.25C116.344 5.69792 117.859 5.42188 119.453 5.42188ZM141.953 15.0469V19.2031C141.953 20.8385 141.76 22.2604 141.375 23.4688C141 24.6771 140.458 25.6771 139.75 26.4688C139.052 27.2604 138.219 27.849 137.25 28.2344C136.281 28.6198 135.214 28.8125 134.047 28.8125C133.109 28.8125 132.234 28.6927 131.422 28.4531C130.609 28.2031 129.875 27.8281 129.219 27.3281C128.573 26.8177 128.016 26.1823 127.547 25.4219C127.078 24.6615 126.719 23.7656 126.469 22.7344C126.219 21.6927 126.094 20.5156 126.094 19.2031V15.0469C126.094 13.401 126.281 11.9792 126.656 10.7812C127.042 9.57292 127.589 8.57292 128.297 7.78125C129.005 6.98958 129.844 6.40104 130.812 6.01562C131.781 5.63021 132.849 5.4375 134.016 5.4375C134.953 5.4375 135.823 5.5625 136.625 5.8125C137.438 6.05208 138.172 6.42708 138.828 6.9375C139.484 7.4375 140.042 8.06771 140.5 8.82812C140.969 9.58854 141.328 10.4896 141.578 11.5312C141.828 12.5625 141.953 13.7344 141.953 15.0469ZM136.688 19.8438V14.375C136.688 13.6458 136.646 13.0104 136.562 12.4688C136.49 11.9271 136.375 11.4688 136.219 11.0938C136.073 10.7188 135.891 10.4167 135.672 10.1875C135.453 9.94792 135.203 9.77604 134.922 9.67188C134.651 9.55729 134.349 9.5 134.016 9.5C133.599 9.5 133.224 9.58854 132.891 9.76562C132.568 9.93229 132.292 10.2031 132.062 10.5781C131.833 10.9531 131.656 11.4531 131.531 12.0781C131.417 12.7031 131.359 13.4688 131.359 14.375V19.8438C131.359 20.5833 131.396 21.2292 131.469 21.7812C131.552 22.3229 131.667 22.7865 131.812 23.1719C131.969 23.5469 132.156 23.8542 132.375 24.0938C132.594 24.3229 132.844 24.4896 133.125 24.5938C133.406 24.6979 133.714 24.75 134.047 24.75C134.453 24.75 134.818 24.6667 135.141 24.5C135.464 24.3333 135.74 24.0625 135.969 23.6875C136.208 23.3021 136.385 22.7969 136.5 22.1719C136.625 21.5365 136.688 20.7604 136.688 19.8438Z" fill="url(#paint0_linear_1_732)"/>
<defs>
<linearGradient id="paint0_linear_1_732" x1="133.036" y1="35.5" x2="19.9411" y2="-24.1442" gradientUnits="userSpaceOnUse">
<stop stop-color="#5A01CB"/>
<stop offset="0.794" stop-color="#FE8900"/>
</linearGradient>
</defs>
</svg>
