<svg width="800" height="800" viewBox="0 0 800 800" fill="none" xmlns="http://www.w3.org/2000/svg">
<path d="M400 75C334.492 75 271.666 101.023 225.345 147.345C179.023 193.666 153 256.492 153 322C153 327.667 153 333.333 153 338.667V340C163 475.333 275.333 584.167 400 725C530.167 578 647 466.667 647 322C647 256.492 620.977 193.666 574.655 147.345C528.334 101.023 465.508 75 400 75ZM400 203.333C423.51 203.333 446.492 210.307 466.038 223.372C485.583 236.437 500.814 255.006 509.804 276.73C518.793 298.453 521.136 322.355 516.538 345.411C511.939 368.467 500.605 389.641 483.969 406.253C467.333 422.866 446.143 434.171 423.081 438.737C400.018 443.303 376.12 440.926 354.409 431.906C332.698 422.887 314.15 407.63 301.113 388.066C288.075 368.502 281.134 345.51 281.167 322C281.211 290.512 293.75 260.329 316.031 238.08C338.312 215.83 368.512 203.333 400 203.333Z" stroke="black" stroke-width="15" stroke-linecap="round" stroke-linejoin="round"/>
<path d="M399.833 203C423.344 203 446.325 209.974 465.871 223.039C485.417 236.104 500.648 254.673 509.637 276.396C518.626 298.12 520.97 322.022 516.371 345.078C511.772 368.134 500.438 389.308 483.802 405.92C467.166 422.533 445.977 433.837 422.914 438.404C399.852 442.97 375.953 440.593 354.242 431.573C332.531 422.553 313.984 407.296 300.946 387.732C287.909 368.168 280.967 345.177 281 321.667C281.044 290.179 293.584 259.996 315.864 237.747C338.145 215.497 368.346 203 399.833 203Z" stroke="#01C2CF" stroke-width="15" stroke-linecap="round" stroke-linejoin="round"/>
</svg>
