<svg width="800" height="800" viewBox="0 0 800 800" fill="none" xmlns="http://www.w3.org/2000/svg">
<path d="M300 700C313.261 700 325.979 694.732 335.355 685.355C344.732 675.979 350 663.261 350 650V600C350 586.739 344.732 574.021 335.355 564.645C325.979 555.268 313.261 550 300 550C200 550 200 450 200 400C200 350 200 250 300 250C313.261 250 325.979 244.732 335.355 235.355C344.732 225.979 350 213.261 350 200V150C350 136.739 344.732 124.021 335.355 114.645C325.979 105.268 313.261 100 300 100C175 100 100 150 100 400C100 650 175 700 300 700Z" stroke="black" stroke-width="12.5"/>
<path d="M592.5 650C656.489 585.943 692.432 499.104 692.432 408.563C692.432 318.021 656.489 231.182 592.5 167.125" stroke="#01C2CF" stroke-width="12.5"/>
<path d="M495.875 553.375C514.898 534.361 529.988 511.785 540.283 486.938C550.578 462.091 555.877 435.458 555.877 408.563C555.877 381.667 550.578 355.034 540.283 330.187C529.988 305.34 514.898 282.764 495.875 263.75" stroke="#01C2CF" stroke-width="12.5"/>
<path d="M400 456.875C412.801 444.055 419.991 426.679 419.991 408.563C419.991 390.446 412.801 373.07 400 360.25" stroke="#01C2CF" stroke-width="12.5"/>
</svg>
