<svg width="15" height="14" viewBox="0 0 15 14" fill="none" xmlns="http://www.w3.org/2000/svg">
<path d="M11.386 5.65692L7.43605 1.70692C7.25389 1.51832 7.1531 1.26571 7.15538 1.00352C7.15765 0.741321 7.26282 0.490508 7.44823 0.3051C7.63364 0.119692 7.88445 0.0145233 8.14665 0.0122448C8.40884 0.00996641 8.66145 0.110761 8.85005 0.292919L14.507 5.94992C14.6002 6.04257 14.6742 6.15273 14.7246 6.27407C14.7751 6.3954 14.8011 6.52551 14.8011 6.65692C14.8011 6.78833 14.7751 6.91844 14.7246 7.03977C14.6742 7.16111 14.6002 7.27127 14.507 7.36392L8.85005 13.0209C8.7578 13.1164 8.64746 13.1926 8.52545 13.245C8.40345 13.2974 8.27223 13.325 8.13945 13.3262C8.00667 13.3273 7.87499 13.302 7.75209 13.2517C7.6292 13.2015 7.51755 13.1272 7.42365 13.0333C7.32976 12.9394 7.25551 12.8278 7.20523 12.7049C7.15495 12.582 7.12964 12.4503 7.1308 12.3175C7.13195 12.1847 7.15954 12.0535 7.21195 11.9315C7.26436 11.8095 7.34054 11.6992 7.43605 11.6069L11.386 7.65692H1.80005C1.53483 7.65692 1.28048 7.55156 1.09294 7.36403C0.905406 7.17649 0.800049 6.92214 0.800049 6.65692C0.800049 6.3917 0.905406 6.13735 1.09294 5.94981C1.28048 5.76228 1.53483 5.65692 1.80005 5.65692H11.386Z" fill="#E2E8F0"/>
</svg>
